PathFileType	4	(X/Y/Z)	G:\Shared drives\HPL_Drive\Nord Sprinting Study\Kristen_Nord_test\Trimmed_Nord000002.trc
DataRate	CameraRate	NumFrames	NumMarkers	Units	OrigDataRate	OrigDataStartFrame	OrigNumFrames
200.00	200.00	      4	52	mm	200.00	272	      2170
Frame#	Time	C7			R_Shoulder			L_Shoulder			Sternum			R_humerus			R_elbow_med			R_elbow_lat			R_forearm			R_wrist_radius			R_wrist_ulna			L_humerus			L_elbow_med			L_elbow_lat			L_forearm			L_wrist_radius			L_wrist_ulna			r.ASIS			r.PSIS			r_IC			L.ASIS			L.PSIS			l_IC			r_thigh1			r_thigh2			r_thigh3			r_thigh4			r_thigh5			r_knee			r_mknee			r_shank_antsup			r_sh2			r_sh3			r_sh4			r_ankle			r_mankle			r_calc			r_5meta			r_toe			L_thigh1			L_thigh2			L_thigh3			L_thigh4			L_knee			L_mknee			L_shank_antsup			L_sh2			L_sh3			L_ankle			L_mankle			L_calc			L_5meta			L_toe			
		X1	Y1	Z1	X2	Y2	Z2	X3	Y3	Z3	X4	Y4	Z4	X5	Y5	Z5	X6	Y6	Z6	X7	Y7	Z7	X8	Y8	Z8	X9	Y9	Z9	X10	Y10	Z10	X11	Y11	Z11	X12	Y12	Z12	X13	Y13	Z13	X14	Y14	Z14	X15	Y15	Z15	X16	Y16	Z16	X17	Y17	Z17	X18	Y18	Z18	X19	Y19	Z19	X20	Y20	Z20	X21	Y21	Z21	X22	Y22	Z22	X23	Y23	Z23	X24	Y24	Z24	X25	Y25	Z25	X26	Y26	Z26	X27	Y27	Z27	X28	Y28	Z28	X29	Y29	Z29	X30	Y30	Z30	X31	Y31	Z31	X32	Y32	Z32	X33	Y33	Z33	X34	Y34	Z34	X35	Y35	Z35	X36	Y36	Z36	X37	Y37	Z37	X38	Y38	Z38	X39	Y39	Z39	X40	Y40	Z40	X41	Y41	Z41	X42	Y42	Z42	X43	Y43	Z43	X44	Y44	Z44	X45	Y45	Z45	X46	Y46	Z46	X47	Y47	Z47	X48	Y48	Z48	X49	Y49	Z49	X50	Y50	Z50	X51	Y51	Z51	X52	Y52	Z52	

272	1.355	1204.78552	308.77158	1288.04675	1325.07617	358.28842	1294.20483	1074.10400	350.87030	1305.03271	1196.93066	441.22006	1246.60522	1501.07166	336.99570	1266.56836	1632.00024	379.33737	1189.27148	1630.01685	310.23285	1227.49695	1625.09253	359.50140	1348.10791	1593.10742	435.59714	1434.54126	1634.89343	414.29880	1447.28308	873.13568	319.70587	1288.73547	753.71332	365.22583	1222.12109	753.68591	297.24911	1257.27917	794.61145	357.91077	1387.38184	788.63904	417.49390	1465.56311	843.13739	412.94833	1454.00757	1313.16589	449.51236	783.36304	1267.39001	272.66113	855.05603	1352.11340	380.79294	870.05737	1073.04456	437.11368	780.95642	1152.88806	269.81805	849.21393	1048.97668	376.05298	859.07813	1379.97510	405.80054	529.30066	1380.50671	397.02567	414.60480	1396.06262	347.67191	389.80072	1389.79736	298.40967	540.13660	1372.80005	291.57468	421.47748	1382.71680	346.70380	311.49139	1253.98438	330.03882	315.17050	1402.18982	219.87531	297.27682	1386.16541	100.27513	291.97824	1393.19739	214.80940	372.90079	1379.84448	99.82076	374.42242	1368.83618	-73.05801	331.13705	1294.96252	-52.74728	290.92880	1309.77917	-107.75542	376.07397	1395.40259	-133.19644	221.57655	1364.64612	-101.30033	171.48056	1011.56305	397.51849	527.85449	1009.96521	386.10193	388.07831	1010.38354	278.86633	543.77753	1022.11102	273.97198	406.35477	999.44983	312.68744	328.05585	1128.07458	319.41174	305.36304	986.13910	204.09760	308.27942	1011.94653	207.33348	395.55710	1024.65417	87.11494	386.91937	1028.84253	-96.15115	340.86655	1101.29626	-63.68681	296.91025	1086.29968	-120.79128	379.68103	1005.03381	-148.10202	215.37317	1041.22412	-110.00044	166.15271	
273	1.360	1204.81775	309.04901	1288.05859	1325.12256	358.54550	1294.18420	1074.15857	351.11295	1305.02649	1197.05627	441.46643	1246.51123	1501.13806	337.19888	1266.50635	1632.04028	379.48538	1189.19177	1630.03430	310.41418	1227.39124	1625.16040	359.70007	1348.02356	1593.24402	435.80035	1434.44507	1634.97681	414.50955	1447.19788	873.15967	319.97116	1288.72620	753.74469	365.44296	1222.10095	753.73022	297.53601	1257.26843	794.92761	358.38080	1387.20105	788.68762	417.78403	1465.53394	843.20648	413.25052	1453.98291	1313.17993	449.60330	783.32404	1267.38196	272.78506	855.03467	1352.09790	380.89023	870.01611	1073.04883	437.29755	780.83771	1152.85645	269.98553	849.23840	1048.96973	376.20517	859.09467	1380.02527	405.79575	529.28821	1380.49683	397.02374	414.57977	1396.06921	347.64389	389.77249	1389.74805	298.42410	540.12445	1372.77673	291.59048	421.45111	1382.72473	346.69919	311.44650	1253.99451	330.05411	315.17142	1402.15698	219.88319	297.21997	1386.17432	100.25209	291.95074	1393.21021	214.78030	372.86139	1379.86255	99.83617	374.41727	1368.82593	-73.06202	331.09216	1294.95459	-52.71712	290.94553	1309.77502	-107.77245	376.07764	1395.41187	-133.22084	221.54028	1364.70544	-101.27216	171.49863	1011.56067	397.58600	527.86401	1009.96259	386.08200	388.03943	1010.39368	278.90112	543.77124	1022.12585	273.99854	406.36810	999.41693	312.65228	328.09839	1128.05017	319.40707	305.36353	986.22742	204.18906	308.31754	1011.90704	207.31613	395.55566	1024.64197	87.12411	386.92560	1028.83032	-96.16850	340.89575	1101.28528	-63.69704	296.92599	1086.28235	-120.80595	379.62787	1005.01996	-148.08229	215.33665	1041.13977	-110.00063	166.25462	
274	1.365	1204.88489	309.29959	1288.02380	1325.35730	358.78476	1294.11975	1074.28967	351.34128	1304.97974	1197.15662	441.69748	1246.40710	1501.19946	337.40790	1266.45325	1632.07886	379.64954	1189.07263	1630.09668	310.58719	1227.32092	1625.23071	359.88800	1347.93762	1593.60437	436.03592	1434.27893	1635.07654	414.74350	1447.07373	873.21753	320.25186	1288.70593	753.79138	365.68793	1222.05884	753.78241	297.81866	1257.22974	794.79535	358.45099	1387.29517	788.75043	418.08569	1465.47510	843.27246	413.55029	1453.94226	1313.21155	449.69153	783.27075	1267.34045	272.93503	855.04932	1352.11304	381.00159	869.97540	1073.08484	437.44485	780.83459	1152.85205	270.14325	849.24072	1048.98035	376.38852	859.08698	1380.05469	405.82330	529.22211	1380.53564	396.98956	414.57150	1396.09229	347.63971	389.77328	1389.72754	298.42297	540.10706	1372.77039	291.58313	421.46478	1382.74707	346.70685	311.45557	1253.99280	330.05191	315.17105	1402.17969	219.86740	297.24191	1386.18347	100.26593	291.93234	1393.23792	214.76939	372.83609	1379.90540	99.85503	374.37177	1368.83020	-73.04041	331.04022	1294.94275	-52.71028	290.98413	1309.77820	-107.78583	376.07034	1395.41736	-133.23433	221.52605	1364.66406	-101.27538	171.41212	1011.57159	397.62589	527.83087	1009.96240	386.12946	388.03436	1010.40576	278.98486	543.80542	1022.11493	274.02902	406.38226	999.40759	312.68335	328.06808	1128.06665	319.41226	305.37146	986.17206	204.10001	308.21017	1011.87860	207.35597	395.54703	1024.59106	87.13383	386.92560	1028.82361	-96.16653	340.88123	1101.28552	-63.70135	296.90897	1086.23840	-120.84247	379.67206	1004.98834	-148.10594	215.35130	1041.27698	-110.01223	166.23062	
275	1.370	1204.94897	309.57013	1288.01550	1325.39990	359.01587	1294.05969	1074.35522	351.59775	1304.97864	1197.19458	441.93530	1246.41553	1501.26147	337.61502	1266.38037	1632.12793	379.79257	1188.98010	1630.12915	310.75168	1227.25610	1625.34473	360.07928	1347.84460	1593.66992	436.02258	1434.00513	1634.93005	414.70969	1446.73914	873.24554	320.50159	1288.71021	753.81537	365.91830	1222.06592	753.82983	298.07126	1257.25330	794.80933	358.68640	1387.30566	788.79803	418.37433	1465.41028	843.32343	413.83954	1453.88464	1313.25098	449.77914	783.21960	1267.33923	273.07162	855.05121	1352.13635	381.12650	869.92755	1073.09351	437.60184	780.79266	1152.83203	270.31775	849.23676	1048.97937	376.57608	859.08160	1380.11328	405.80011	529.21698	1380.56433	396.98285	414.53604	1396.10242	347.61237	389.74396	1389.72900	298.43439	540.10492	1372.75696	291.58624	421.44977	1382.75867	346.69186	311.41785	1253.98743	330.09100	315.15866	1402.19446	219.85957	297.25375	1386.18408	100.25552	291.90710	1393.25427	214.73630	372.84698	1379.87915	99.85886	374.38379	1368.80518	-73.09610	331.07172	1294.92615	-52.72726	291.01001	1309.76990	-107.79422	376.04523	1395.38916	-133.22220	221.49393	1364.57813	-101.29240	171.31386	1011.57367	397.69873	527.81128	1009.96533	386.10538	388.00967	1010.40356	279.03387	543.78143	1022.07928	274.04581	406.38742	999.43268	312.69647	328.01297	1128.08069	319.41046	305.36850	986.18018	204.20497	308.17490	1011.84283	207.34811	395.56311	1024.55762	87.09759	386.93201	1028.80176	-96.16057	340.87656	1101.26355	-63.71406	296.90079	1086.20935	-120.85208	379.71848	1004.98767	-148.11156	215.38794	1041.15320	-110.04086	166.32019	
